<svg preserveAspectRatio="none" width="100%" height="100%" overflow="visible" style="display: block;" viewBox="0 0 33.2139 33.2139" fill="none" xmlns="http://www.w3.org/2000/svg">
<g id="Frame 427319947">
<circle id="Ellipse 49" cx="16.6069" cy="16.6069" r="16.6069" fill="var(--fill-0, #E7EEE9)"/>
<g id="faucet 1" clip-path="url(#clip0_0_12)">
<path id="Vector" d="M23.0232 21.1361L21.6886 22.4413C21.3323 22.7976 21.136 23.2716 21.136 23.7759C21.136 24.2801 21.3323 24.7534 21.6886 25.1105C22.0449 25.4675 22.5189 25.663 23.0232 25.663C23.5274 25.663 24.0015 25.4667 24.3578 25.1105C24.7141 24.7534 24.9103 24.2794 24.9103 23.7759C24.9103 23.2724 24.7141 22.7976 24.3547 22.439L23.0232 21.1361ZM23.8241 24.5768C23.3976 25.0033 22.651 25.0048 22.223 24.5768C22.0094 24.3631 21.8916 24.0786 21.8916 23.7759C21.8916 23.4732 22.0094 23.1893 22.2208 22.978L23.0239 22.1914L23.8248 22.975C24.0392 23.1886 24.1562 23.4724 24.1562 23.7759C24.1562 24.0793 24.0377 24.3624 23.8241 24.5768ZM19.2489 11.3229H15.852V8.30347H20.3812V7.54861H10.568V8.30347H15.0971V11.3229H7.54852V12.0778H15.0971V15.8521H7.54852V16.6069H19.2489C19.8731 16.6069 20.3812 17.115 20.3812 17.7392V19.6264H25.6652V17.7392C25.6652 14.2012 22.7869 11.3229 19.2489 11.3229ZM24.9103 18.8715H21.136V17.7392C21.136 16.6983 20.2891 15.8521 19.2489 15.8521H15.852V12.0778H19.2489C22.371 12.0778 24.9103 14.6171 24.9103 17.7392V18.8715Z" fill="var(--fill-0, #617C6C)"/>
</g>
</g>
<defs>
<clipPath id="clip0_0_12">
<rect width="18.1167" height="18.1167" fill="white" transform="translate(7.54852 7.54861)"/>
</clipPath>
</defs>
</svg>
